# xmcd CD database file
#
# Track frame offsets:
#	150
#	19407
#	35667
#
# Disc length: 644 seconds
#
# Revision: 2
# Processed by: cddbd v1.5.1PL0 Copyright (c) Steve Scherf et al.
# Submitted via: CDex 1.51
#
DISCID=21028203
DTITLE=SUPERCAR - Lucky
DYEAR=1900
DGENRE=Rock
TTITLE0=Lucky
TTITLE1=Hello
TTITLE2=RIGHT NOW
EXTD=
EXTT0=
EXTT1=
EXTT2=
PLAYORDER=
